<svg width="72" height="72" viewBox="0 0 72 72" fill="none" xmlns="http://www.w3.org/2000/svg">
<path d="M40.5001 65.2501H31.5001C30.9033 65.2501 30.331 65.4871 29.9091 65.9091C29.4871 66.331 29.2501 66.9033 29.2501 67.5001C29.2501 68.0968 29.4871 68.6691 29.9091 69.0911C30.331 69.513 30.9033 69.7501 31.5001 69.7501H40.5001C41.0968 69.7501 41.6691 69.513 42.0911 69.0911C42.513 68.6691 42.7501 68.0968 42.7501 67.5001C42.7501 66.9033 42.513 66.331 42.0911 65.9091C41.6691 65.4871 41.0968 65.2501 40.5001 65.2501ZM42.7501 58.5001H29.2501C28.6533 58.5001 28.081 58.7371 27.6591 59.1591C27.2371 59.581 27.0001 60.1533 27.0001 60.7501C27.0001 61.3468 27.2371 61.9191 27.6591 62.3411C28.081 62.763 28.6533 63.0001 29.2501 63.0001H42.7501C43.3468 63.0001 43.9191 62.763 44.3411 62.3411C44.763 61.9191 45.0001 61.3468 45.0001 60.7501C45.0001 60.1533 44.763 59.581 44.3411 59.1591C43.9191 58.7371 43.3468 58.5001 42.7501 58.5001ZM51.9498 8.81585C47.7212 4.58163 42.0568 2.25006 36.0001 2.25006C33.0433 2.24302 30.1144 2.82019 27.3814 3.94842C24.6483 5.07666 22.1652 6.73372 20.0744 8.82445C17.9837 10.9152 16.3267 13.3983 15.1984 16.1314C14.0702 18.8644 13.493 21.7933 13.5001 24.7501C13.5001 31.306 16.013 37.4387 20.3907 41.5744L21.0038 42.1496C23.5365 44.5177 27.0001 47.7619 27.0001 50.6251V54.0001C27.0001 54.5968 27.2371 55.1691 27.6591 55.5911C28.081 56.013 28.6533 56.2501 29.2501 56.2501H32.6251C32.9234 56.2501 33.2096 56.1315 33.4206 55.9206C33.6315 55.7096 33.7501 55.4234 33.7501 55.1251V38.6466C33.7501 38.4191 33.6812 38.1969 33.5524 38.0094C33.4236 37.8219 33.241 37.6778 33.0287 37.5962C31.7294 37.0661 30.4951 36.389 29.3499 35.5782C29.0926 35.4138 28.8713 35.1988 28.6997 34.9463C28.5281 34.6937 28.4098 34.4088 28.3518 34.109C28.2938 33.8092 28.2975 33.5008 28.3625 33.2024C28.4276 32.9041 28.5527 32.6221 28.7303 32.3737C28.9078 32.1252 29.134 31.9155 29.3952 31.7573C29.6564 31.5991 29.947 31.4958 30.2495 31.4535C30.5519 31.4112 30.8597 31.431 31.1543 31.5115C31.4488 31.5921 31.7239 31.7317 31.9627 31.9219C33.0033 32.6588 35.0073 33.7501 36.0001 33.7501C36.9929 33.7501 38.9968 32.656 40.0402 31.9219C40.5261 31.6165 41.1103 31.5082 41.6733 31.6193C42.2363 31.7304 42.7356 32.0524 43.069 32.5195C43.4025 32.9866 43.5448 33.5634 43.467 34.132C43.3891 34.7006 43.0969 35.2179 42.6502 35.5782C41.5048 36.3876 40.2705 37.0632 38.9715 37.5919C38.7591 37.6736 38.5765 37.8176 38.4477 38.0052C38.3189 38.1927 38.25 38.4149 38.2501 38.6424V55.1251C38.2501 55.4234 38.3686 55.7096 38.5796 55.9206C38.7905 56.1315 39.0767 56.2501 39.3751 56.2501H42.7501C43.3468 56.2501 43.9191 56.013 44.3411 55.5911C44.763 55.1691 45.0001 54.5968 45.0001 54.0001V50.6251C45.0001 47.8294 48.4257 44.588 50.9274 42.2199L51.6179 41.5646C56.1207 37.2657 58.5001 31.4452 58.5001 24.7501C58.515 21.7931 57.9438 18.8624 56.8195 16.1275C55.6952 13.3925 54.04 10.9074 51.9498 8.81585Z" fill="#EEDB21"/>
</svg>
