<svg width="72" height="72" viewBox="0 0 72 72" fill="none" xmlns="http://www.w3.org/2000/svg">
<g id="warning">
<path id="Vector" d="M63.1509 56.1206L39.1842 11.6128C37.4854 8.45719 32.9601 8.45719 31.2599 11.6128L7.29463 56.1206C6.92579 56.8057 6.74087 57.5747 6.75792 58.3525C6.77497 59.1304 6.99341 59.8905 7.39191 60.5588C7.79042 61.227 8.35538 61.7805 9.03164 62.1652C9.70791 62.55 10.4724 62.7528 11.2504 62.7539H59.1881C59.9667 62.754 60.732 62.5521 61.4093 62.1678C62.0865 61.7836 62.6525 61.2302 63.0518 60.5618C63.4511 59.8933 63.6702 59.1327 63.6875 58.3543C63.7049 57.5758 63.52 56.8062 63.1509 56.1206ZM35.2228 55.8633C34.6665 55.8633 34.1227 55.6983 33.6602 55.3893C33.1977 55.0802 32.8372 54.641 32.6243 54.1271C32.4115 53.6132 32.3558 53.0477 32.4643 52.5021C32.5728 51.9565 32.8407 51.4554 33.234 51.062C33.6273 50.6687 34.1285 50.4008 34.6741 50.2923C35.2196 50.1838 35.7851 50.2395 36.299 50.4524C36.813 50.6652 37.2522 51.0257 37.5613 51.4882C37.8703 51.9508 38.0353 52.4945 38.0353 53.0508C38.0353 53.7967 37.7389 54.5121 37.2115 55.0395C36.684 55.567 35.9687 55.8633 35.2228 55.8633ZM38.2771 27.5766L37.4699 44.7328C37.4699 45.3296 37.2329 45.9018 36.8109 46.3238C36.389 46.7458 35.8167 46.9828 35.2199 46.9828C34.6232 46.9828 34.0509 46.7458 33.629 46.3238C33.207 45.9018 32.9699 45.3296 32.9699 44.7328L32.1628 27.5836C32.1446 27.1738 32.2092 26.7645 32.3526 26.3802C32.496 25.9959 32.7153 25.6444 32.9974 25.3466C33.2795 25.0489 33.6187 24.811 33.9948 24.6471C34.3708 24.4832 34.776 24.3968 35.1862 24.3928H35.2157C35.6287 24.3926 36.0374 24.4761 36.4173 24.6382C36.7971 24.8002 37.1402 25.0376 37.4257 25.3359C37.7113 25.6343 37.9335 25.9874 38.0788 26.3739C38.2242 26.7604 38.2897 27.1724 38.2715 27.585L38.2771 27.5766Z" fill="white"/>
</g>
</svg>
