<svg width="32" height="32" viewBox="0 0 32 32" fill="none" xmlns="http://www.w3.org/2000/svg">
<g id="ic:round-sell">
<path id="Vector" d="M28.547 15.2134L16.7737 3.44002C16.2803 2.94669 15.6003 2.66669 14.8937 2.66669H5.33366C3.86699 2.66669 2.66699 3.86669 2.66699 5.33335V14.8934C2.66699 15.6 2.94699 16.28 3.45366 16.7734L15.227 28.5467C16.267 29.5867 17.9603 29.5867 19.0003 28.5467L28.5603 18.9867C29.6003 17.9467 29.6003 16.2667 28.547 15.2134ZM8.66699 10.6667C7.56033 10.6667 6.66699 9.77335 6.66699 8.66669C6.66699 7.56002 7.56033 6.66669 8.66699 6.66669C9.77366 6.66669 10.667 7.56002 10.667 8.66669C10.667 9.77335 9.77366 10.6667 8.66699 10.6667Z" fill="white"/>
</g>
</svg>
