<svg width="32" height="32" viewBox="0 0 32 32" fill="none" xmlns="http://www.w3.org/2000/svg">
<g id="logo-behance">
<path id="Vector" d="M21.5066 14.6C19.7004 14.6 19.4504 16.4 19.4504 16.4H23.2879C23.2879 16.4 23.3129 14.6 21.5066 14.6ZM12.8004 16.4H9.40039V19.525H12.6316C13.1191 19.5125 14.0316 19.375 14.0316 18.0062C14.0316 16.3812 12.8004 16.4 12.8004 16.4Z" fill="#DD1143"/>
<path id="Vector_2" d="M16 2C8.26875 2 2 8.26875 2 16C2 23.7313 8.26875 30 16 30C23.7313 30 30 23.7313 30 16C30 8.26875 23.7313 2 16 2ZM18.95 10.6H23.7687V12.0375H18.95V10.6ZM16.5125 18.15C16.5125 21.7125 12.8 21.6 12.8 21.6H6.725V9.9125H12.8C14.65 9.9125 16.1063 10.9312 16.1063 13.025C16.1063 15.1187 14.325 15.25 14.325 15.25C16.675 15.25 16.5125 18.15 16.5125 18.15ZM25.525 17.9562H19.4688C19.4688 20.125 21.525 19.9875 21.525 19.9875C23.4688 19.9875 23.4 18.7313 23.4 18.7313H25.4562C25.4562 22.0688 21.4562 21.8375 21.4562 21.8375C16.6625 21.8375 16.9688 17.3687 16.9688 17.3687C16.9688 17.3687 16.9625 12.8813 21.4562 12.8813C26.1875 12.8875 25.525 17.9562 25.525 17.9562Z" fill="#DD1143"/>
<path id="Vector_3" d="M13.6254 13.2063C13.6254 11.9938 12.8004 11.9938 12.8004 11.9938H9.40039V14.6H12.5879C13.1379 14.6 13.6254 14.4188 13.6254 13.2063Z" fill="#DD1143"/>
</g>
</svg>
