<svg width="34" height="34" viewBox="0 0 34 34" fill="none" xmlns="http://www.w3.org/2000/svg">
<g id="ph:push-pin-fill" clip-path="url(#clip0_0_1594)">
<path id="Vector" d="M8.26466 11.4464L15.3658 11.4345C15.9034 10.2923 17.1848 8.76028 20.2176 8.33138C20.4304 8.30072 20.6473 8.31637 20.8534 8.37723C21.0596 8.4381 21.2502 8.54275 21.4122 8.68404L21.4871 8.75895C21.6265 8.89831 21.7371 9.06377 21.8125 9.24587C21.8879 9.42798 21.9267 9.62317 21.9266 9.82028L21.9233 16.222L27.5773 16.22C27.7763 16.22 27.9672 16.2991 28.1079 16.4398C28.2487 16.5806 28.3277 16.7714 28.3277 16.9705C28.3277 17.1695 28.2487 17.3603 28.1079 17.5011C27.9672 17.6418 27.7763 17.7209 27.5773 17.7209L21.9233 17.7189L21.9233 24.1226C21.9232 24.3332 21.8787 24.5415 21.7928 24.7338C21.7068 24.926 21.5813 25.0981 21.4245 25.2387C21.2677 25.3792 21.083 25.4852 20.8825 25.5497C20.682 25.6142 20.4701 25.6357 20.2607 25.6128C17.216 25.2874 15.8703 23.4073 15.3857 22.4799L8.26666 22.4925C8.06964 22.4925 7.87456 22.4538 7.69254 22.3784C7.51052 22.303 7.34513 22.1925 7.20582 22.0532C7.06651 21.9139 6.95601 21.7485 6.88063 21.5665C6.80525 21.3844 6.76646 21.1894 6.76648 20.9923L6.76582 12.9466C6.76577 12.5489 6.92363 12.1675 7.20469 11.8862C7.48575 11.6049 7.86701 11.4467 8.26466 11.4464Z" fill="#AA31F5"/>
</g>
<defs>
<clipPath id="clip0_0_1594">
<rect width="24" height="24" fill="white" transform="translate(16.9707 33.9414) rotate(-135)"/>
</clipPath>
</defs>
</svg>
